<svg xmlns="http://www.w3.org/2000/svg" viewBox="0 0 1044 470" width="1044" height="470" role="img" aria-label="The editor an entrusted site's owner sees: a collection list, a field panel with a character counter, a live preview of the real page in a phone frame, and the remaining write quota">
<rect x="0.5" y="0.5" width="1043" height="469" rx="14" fill="#f8fafc" stroke="#e6e8ec" stroke-width="1"/>
<text x="26" y="46" font-family="Segoe UI, system-ui, -apple-system, Helvetica, Arial, sans-serif" font-size="18" font-weight="700" fill="#0f172a">What the owner gets</text>
<text x="1018" y="46" font-family="Segoe UI, system-ui, -apple-system, Helvetica, Arial, sans-serif" font-size="11" fill="#64748b" text-anchor="end">vendored editor · server-side allow-list · write quota</text>
<rect x="26" y="66" width="992" height="336" rx="10" fill="#ffffff" stroke="#e6e8ec" stroke-width="1"/>
<rect x="26" y="66" width="992" height="34" rx="10" fill="#f1f5f9" stroke="#e6e8ec" stroke-width="1"/>
<circle cx="46" cy="83" r="4.5" fill="#9da7b3" fill-opacity="0.6"/>
<circle cx="62" cy="83" r="4.5" fill="#9da7b3" fill-opacity="0.6"/>
<circle cx="78" cy="83" r="4.5" fill="#9da7b3" fill-opacity="0.6"/>
<rect x="104" y="74" width="250" height="18" rx="9" fill="#ffffff" stroke="#e6e8ec" stroke-width="1"/>
<text x="116" y="87" font-family="ui-monospace, SFMono-Regular, Menlo, Consolas, monospace" font-size="10.5" fill="#64748b">example.com/admin/</text>
<rect x="27" y="100" width="196" height="301" rx="0" fill="#f1f5f9"/>
<text x="45" y="130" font-family="Segoe UI, system-ui, -apple-system, Helvetica, Arial, sans-serif" font-size="12" font-weight="700" fill="#0f172a">Content</text>
<text x="49" y="157" font-family="Segoe UI, system-ui, -apple-system, Helvetica, Arial, sans-serif" font-size="12" fill="#64748b">Home</text>
<rect x="37" y="172" width="176" height="28" rx="6" fill="rgba(79,70,229,0.06)"/>
<text x="49" y="191" font-family="Segoe UI, system-ui, -apple-system, Helvetica, Arial, sans-serif" font-size="12" fill="#4f46e5">Opening hours</text>
<text x="49" y="225" font-family="Segoe UI, system-ui, -apple-system, Helvetica, Arial, sans-serif" font-size="12" fill="#64748b">Services</text>
<text x="49" y="259" font-family="Segoe UI, system-ui, -apple-system, Helvetica, Arial, sans-serif" font-size="12" fill="#64748b">Photos</text>
<text x="49" y="301" font-family="Segoe UI, system-ui, -apple-system, Helvetica, Arial, sans-serif" font-size="10.5" fill="#9da7b3">Templates, scripts</text>
<text x="49" y="315" font-family="Segoe UI, system-ui, -apple-system, Helvetica, Arial, sans-serif" font-size="10.5" fill="#9da7b3">and styles are absent</text>
<text x="49" y="329" font-family="Segoe UI, system-ui, -apple-system, Helvetica, Arial, sans-serif" font-size="10.5" fill="#9da7b3">from this list.</text>
<text x="249" y="130" font-family="Segoe UI, system-ui, -apple-system, Helvetica, Arial, sans-serif" font-size="14" font-weight="700" fill="#0f172a">Opening hours</text>
<text x="249" y="158" font-family="Segoe UI, system-ui, -apple-system, Helvetica, Arial, sans-serif" font-size="10.5" font-weight="600" fill="#64748b">Title</text>
<rect x="249" y="166" width="525" height="32" rx="6" fill="#ffffff" stroke="#e6e8ec" stroke-width="1"/>
<text x="261" y="187" font-family="Segoe UI, system-ui, -apple-system, Helvetica, Arial, sans-serif" font-size="12" fill="#0f172a">Our hours</text>
<text x="249" y="220" font-family="Segoe UI, system-ui, -apple-system, Helvetica, Arial, sans-serif" font-size="10.5" font-weight="600" fill="#64748b">Weekdays</text>
<rect x="249" y="228" width="525" height="32" rx="6" fill="#ffffff" stroke="#e6e8ec" stroke-width="1"/>
<text x="261" y="249" font-family="Segoe UI, system-ui, -apple-system, Helvetica, Arial, sans-serif" font-size="12" fill="#0f172a">9am to 7pm</text>
<text x="249" y="282" font-family="Segoe UI, system-ui, -apple-system, Helvetica, Arial, sans-serif" font-size="10.5" font-weight="600" fill="#64748b">Sunday</text>
<rect x="249" y="290" width="525" height="32" rx="6" fill="#ffffff" stroke="#4f46e5" stroke-width="1"/>
<text x="261" y="311" font-family="Segoe UI, system-ui, -apple-system, Helvetica, Arial, sans-serif" font-size="12" fill="#0f172a">Closed</text>
<text x="774" y="336" font-family="Segoe UI, system-ui, -apple-system, Helvetica, Arial, sans-serif" font-size="10" fill="#b45309" text-anchor="end">7 characters (advised 20 to 60)</text>
<rect x="249" y="354" width="92" height="30" rx="6" fill="#4f46e5"/>
<text x="295" y="373" font-family="Segoe UI, system-ui, -apple-system, Helvetica, Arial, sans-serif" font-size="12" font-weight="600" fill="#ffffff" text-anchor="middle">Save</text>
<rect x="353" y="354" width="118" height="30" rx="6" fill="#ffffff" stroke="#e6e8ec" stroke-width="1"/>
<text x="412" y="373" font-family="Segoe UI, system-ui, -apple-system, Helvetica, Arial, sans-serif" font-size="11" fill="#64748b" text-anchor="middle">Previous version</text>
<rect x="820" y="122" width="150" height="250" rx="20" fill="#0f172a"/>
<rect x="825" y="127" width="140" height="240" rx="16" fill="#ffffff"/>
<rect x="825" y="127" width="140" height="26" rx="16" fill="#f1f5f9"/>
<rect x="840" y="166" width="74" height="7" rx="3.5" fill="rgba(15,23,42,0.06)"/>
<rect x="840" y="184" width="100" height="44" rx="4" fill="rgba(79,70,229,0.06)"/>
<text x="846" y="202" font-family="Segoe UI, system-ui, -apple-system, Helvetica, Arial, sans-serif" font-size="9.5" font-weight="700" fill="#4f46e5">Our hours</text>
<text x="846" y="218" font-family="Segoe UI, system-ui, -apple-system, Helvetica, Arial, sans-serif" font-size="9" fill="#64748b">9am to 7pm</text>
<rect x="840" y="246" width="106" height="4" rx="2" fill="rgba(15,23,42,0.06)"/>
<rect x="840" y="262" width="106" height="4" rx="2" fill="rgba(15,23,42,0.06)"/>
<rect x="840" y="278" width="106" height="4" rx="2" fill="rgba(15,23,42,0.06)"/>
<rect x="840" y="294" width="106" height="4" rx="2" fill="rgba(15,23,42,0.06)"/>
<rect x="840" y="310" width="62" height="4" rx="2" fill="rgba(15,23,42,0.06)"/>
<rect x="840" y="328" width="66" height="20" rx="10" fill="rgba(15,23,42,0.06)"/>
<text x="895" y="396" font-family="Segoe UI, system-ui, -apple-system, Helvetica, Arial, sans-serif" font-size="10" fill="#9da7b3" text-anchor="middle">the real page, at 390px</text>
<rect x="41" y="352" width="168" height="28" rx="14" fill="#ffffff" stroke="#e6e8ec" stroke-width="1"/>
<circle cx="59" cy="366" r="4" fill="#b45309"/>
<text x="71" y="370" font-family="Segoe UI, system-ui, -apple-system, Helvetica, Arial, sans-serif" font-size="10.5" fill="#64748b">3 changes left this hour</text>
<text x="26" y="440" font-family="Segoe UI, system-ui, -apple-system, Helvetica, Arial, sans-serif" font-size="11" fill="#64748b">The bridge refuses any path outside the compiled allow-list, whatever the interface offers.</text>
<text x="1018" y="440" font-family="Segoe UI, system-ui, -apple-system, Helvetica, Arial, sans-serif" font-size="11" fill="#9da7b3" text-anchor="end">No token in the browser.</text>
</svg>
